<mxfile host="app.diagrams.net" modified="2023-07-01T05:18:56.437Z" agent="Mozilla/5.0 (Windows NT 10.0; Win64; x64) AppleWebKit/537.36 (KHTML, like Gecko) Chrome/114.0.0.0 Safari/537.36" version="21.5.2" etag="4i1dT5N_fbkYkn80bU07" type="github">
  <diagram name="Page-1" id="pTlIMauA392zsRMp-aZz">
    <mxGraphModel>
      <root>
        <mxCell id="0" />
        <mxCell id="1" parent="0" />
      </root>
    </mxGraphModel>
  </diagram>
</mxfile>
